<?xml version="1.0" encoding="utf-8"?>
<!-- Generator: Adobe Illustrator 24.2.1, SVG Export Plug-In . SVG Version: 6.00 Build 0)  -->
<svg version="1.1" id="Layer_1" xmlns="http://www.w3.org/2000/svg" xmlns:xlink="http://www.w3.org/1999/xlink" x="0px" y="0px"
	 viewBox="0 0 475.3 291" style="enable-background:new 0 0 475.3 291;" xml:space="preserve">
<style type="text/css">
	.st0{fill-rule:evenodd;clip-rule:evenodd;fill:#E74C3C;}
	.st1{fill-rule:evenodd;clip-rule:evenodd;fill:#F39C12;}
	.st2{fill-rule:evenodd;clip-rule:evenodd;fill:#18BC9C;}
	.st3{fill-rule:evenodd;clip-rule:evenodd;fill:#3498DB;}
	.st4{fill-rule:evenodd;clip-rule:evenodd;fill:#2C3E50;}
</style>
<path class="st0" d="M8.4,249.7l9.1-51.8c0.6-3.3,3.7-5.4,7-4.9l179.1,31.6c3.3,0.6,5.4,3.7,4.9,6.9l-9.1,51.8
	c-0.6,3.3-3.7,5.4-6.9,4.9L13.3,256.6C10,256,7.8,252.9,8.4,249.7z"/>
<path class="st1" d="M1.5,175.7l26.3-45.6c1.7-2.9,5.3-3.9,8.2-2.2l157.5,90.9c2.9,1.7,3.9,5.3,2.2,8.2l-26.3,45.6
	c-1.7,2.9-5.3,3.9-8.2,2.2L3.7,183.9C0.8,182.2-0.2,178.5,1.5,175.7z"/>
<path class="st2" d="M20.9,103.8L61.2,70c2.5-2.1,6.3-1.8,8.4,0.7L186.5,210c2.1,2.5,1.8,6.3-0.7,8.4l-40.3,33.8
	c-2.6,2.1-6.3,1.8-8.4-0.7L20.1,112.3C18,109.7,18.3,106,20.9,103.8z"/>
<path class="st3" d="M63.1,42.5l49.4-18c3.1-1.1,6.6,0.5,7.7,3.6L182.4,199c1.1,3.1-0.5,6.6-3.6,7.7l-49.4,18
	c-3.1,1.1-6.6-0.5-7.7-3.6L59.5,50.2C58.4,47.1,60,43.6,63.1,42.5z"/>
<path class="st4" d="M215,226.2c17.8,0,32.3-14.5,32.3-32.3c0-17.8-14.5-32.3-32.3-32.3s-32.3,14.5-32.3,32.3
	C182.6,211.8,197.1,226.2,215,226.2z M118.2,189.1c-0.1-0.4-0.1-0.8-0.1-1.2V6.1c0-3.3,2.7-6,6-6h52.6c1.6,0,3.1,0.6,4.3,1.8
	c1.1,1.1,1.8,2.7,1.8,4.3v96.4c10.1-3.6,21-5.5,32.3-5.5c53.5,0,96.9,43.4,96.9,96.9s-43.4,96.9-96.9,96.9S118,247.4,118,193.9
	C118,192.3,118.1,190.7,118.2,189.1z"/>
<g>
	<path class="st4" d="M460,176.9H335.9c-5.5,0-10.3,4.5-11.9,11c-3.3,13.7-6,42.6-18,60.4c-23.3,34.4-54.5,42.8-54.5,42.8H460
		c8,0,15.3-6.6,15.3-16.6v-78C475.3,186.5,468,176.9,460,176.9z M363.5,274.4l-10.1-27.7h-3.6v27.7h-12.9v-75.4
		c0-0.9,0.7-1.6,1.6-1.6h16.4c11.2,0,20.4,5.7,20.4,24c0,11.3-3.8,18.5-9.4,22.2l12,30.8L363.5,274.4L363.5,274.4z M420.8,212.1
		h-13.5v62.3h-13.9v-62.4h-13.5v-14.6h41L420.8,212.1L420.8,212.1z M460.8,274.4H429v-76.9H443v62.4h17.8c0.6,0,1.1,0.5,1.1,1.1
		c0,4.1,0,8.3,0,12.4C461.8,274,461.3,274.4,460.8,274.4z"/>
	<path class="st4" d="M352.9,211.3h-3.1v21.6h3.1c6.3,0,9.7-3.9,9.7-11.5C362.6,213.8,359.2,211.3,352.9,211.3z"/>
</g>
</svg>
