<?xml version="1.0" encoding="utf-8"?>
<!-- Generator: Adobe Illustrator 24.2.1, SVG Export Plug-In . SVG Version: 6.00 Build 0)  -->
<svg version="1.1" id="Layer_1" xmlns="http://www.w3.org/2000/svg" xmlns:xlink="http://www.w3.org/1999/xlink" x="0px" y="0px"
	 viewBox="0 0 475.33 291" style="enable-background:new 0 0 475.33 291;" xml:space="preserve">
<style type="text/css">
	.st0{fill-rule:evenodd;clip-rule:evenodd;fill:#E74C3C;}
	.st1{fill-rule:evenodd;clip-rule:evenodd;fill:#F39C12;}
	.st2{fill-rule:evenodd;clip-rule:evenodd;fill:#18BC9C;}
	.st3{fill-rule:evenodd;clip-rule:evenodd;fill:#2C3E50;}
	.st4{fill-rule:evenodd;clip-rule:evenodd;fill:#FFFFFF;}
</style>
<path class="st0" d="M8.43,249.66l9.14-51.82c0.58-3.27,3.68-5.44,6.95-4.87l179.08,31.58c3.27,0.58,5.44,3.68,4.87,6.95
	l-9.14,51.82c-0.58,3.27-3.68,5.44-6.95,4.87L13.29,256.62C10.02,256.04,7.85,252.94,8.43,249.66z"/>
<path class="st1" d="M1.5,175.66l26.31-45.57c1.66-2.88,5.32-3.86,8.2-2.2l157.48,90.92c2.88,1.66,3.86,5.32,2.2,8.2l-26.31,45.57
	c-1.66,2.88-5.32,3.86-8.2,2.2L3.69,183.85C0.82,182.2-0.16,178.54,1.5,175.66z"/>
<path class="st2" d="M20.87,103.82L61.17,70c2.55-2.14,6.32-1.81,8.45,0.74l116.89,139.3c2.14,2.54,1.81,6.32-0.74,8.45l-40.3,33.82
	c-2.55,2.14-6.32,1.8-8.45-0.74L20.13,112.28C17.99,109.73,18.32,105.96,20.87,103.82z"/>
<path class="st3" d="M63.1,42.5l49.44-18c3.12-1.14,6.55,0.47,7.69,3.59l62.2,170.88c1.14,3.12-0.46,6.55-3.59,7.69l-49.44,18
	c-3.12,1.14-6.55-0.46-7.69-3.59L59.51,50.19C58.38,47.06,59.98,43.63,63.1,42.5z"/>
<path class="st4" d="M214.96,226.21c17.84,0,32.31-14.46,32.31-32.31c0-17.84-14.47-32.3-32.31-32.3s-32.31,14.46-32.31,32.3
	C182.65,211.75,197.12,226.21,214.96,226.21z M118.16,189.09c-0.08-0.39-0.12-0.79-0.12-1.19V6.06c0-3.32,2.69-6,6-6h52.6
	c1.59,0,3.12,0.63,4.25,1.75c1.13,1.13,1.76,2.65,1.76,4.25v96.44c10.11-3.57,20.98-5.52,32.31-5.52
	c53.53,0,96.92,43.39,96.92,96.92c0,53.53-43.39,96.93-96.92,96.93c-53.53,0-96.92-43.39-96.92-96.93
	C118.04,192.29,118.08,190.68,118.16,189.09z"/>
<g>
	<path class="st4" d="M460,176.87H335.88c-5.46,0-10.3,4.46-11.88,11c-3.3,13.71-6.03,42.65-18,60.35
		C282.72,282.63,251.48,291,251.48,291H460c7.98,0,15.33-6.59,15.33-16.57v-77.98C475.33,186.47,467.98,176.87,460,176.87z
		 M362.49,274.43L352,246.74h-6.83v27.69h-12.41v-76.94h19.77c11.65,0,21.19,5.67,21.19,23.96c0,11.31-3.92,18.49-9.78,22.2
		l12.43,30.79H362.49z M420.99,212.08h-15.11v62.35h-12.41v-62.35h-15.11v-14.59h42.64V212.08z M463.65,274.43h-34.09v-76.94h12.41
		v62.36h21.67V274.43z"/>
	<path class="st4" d="M351.53,211.3h-6.35v21.63h6.35c6.53,0,10.04-3.92,10.04-11.48C361.56,213.84,358.06,211.3,351.53,211.3z"/>
</g>
</svg>
